<svg width="17" height="16" viewBox="0 0 17 16" fill="none" xmlns="http://www.w3.org/2000/svg">
<path d="M8.5 9.05733L4.97134 5.52866C4.8456 5.40722 4.6772 5.34002 4.5024 5.34154C4.32761 5.34306 4.1604 5.41318 4.03679 5.53678C3.91319 5.66039 3.84307 5.82759 3.84156 6.00239C3.84004 6.17719 3.90723 6.34559 4.02867 6.47133L8.02867 10.4713C8.15369 10.5963 8.32323 10.6665 8.5 10.6665C8.67678 10.6665 8.84632 10.5963 8.97134 10.4713L12.9713 6.47133C13.035 6.40983 13.0858 6.33627 13.1207 6.25493C13.1557 6.17359 13.1741 6.08611 13.1748 5.99759C13.1756 5.90907 13.1587 5.82129 13.1252 5.73936C13.0917 5.65743 13.0422 5.58299 12.9796 5.5204C12.917 5.4578 12.8426 5.4083 12.7606 5.37478C12.6787 5.34126 12.5909 5.32439 12.5024 5.32516C12.4139 5.32593 12.3264 5.34432 12.2451 5.37926C12.1637 5.4142 12.0902 5.46499 12.0287 5.52866L8.5 9.05733Z" fill="#254E5F"/>
</svg>
