<svg width="16" height="16" viewBox="0 0 16 16" fill="none" xmlns="http://www.w3.org/2000/svg">
<g clip-path="url(#clip0)">
<path fill-rule="evenodd" clip-rule="evenodd" d="M13.3333 7.38401V8.00401C13.3326 9.29786 12.9136 10.5568 12.1389 11.5931C11.3642 12.6294 10.2753 13.3875 9.03455 13.7543C7.79379 14.1212 6.46769 14.0771 5.25402 13.6288C4.04034 13.1804 3.00413 12.3517 2.29991 11.2662C1.59569 10.1808 1.26121 8.89685 1.34634 7.6058C1.43147 6.31475 1.93166 5.0858 2.7723 4.10225C3.61295 3.1187 4.74901 2.43324 6.01105 2.1481C7.27309 1.86295 8.5935 1.99341 9.77534 2.52001C9.93685 2.59197 10.1203 2.59682 10.2854 2.5335C10.4505 2.47017 10.5837 2.34386 10.6557 2.18234C10.7276 2.02083 10.7325 1.83734 10.6692 1.67224C10.6058 1.50715 10.4795 1.37397 10.318 1.30201C8.87353 0.658389 7.2597 0.498943 5.71721 0.847449C4.17471 1.19596 2.78619 2.03374 1.75874 3.23586C0.731285 4.43798 0.119946 5.94002 0.0158963 7.51797C-0.0881532 9.09592 0.320662 10.6652 1.18137 11.9919C2.04208 13.3185 3.30857 14.3313 4.79195 14.8794C6.27532 15.4274 7.89612 15.4812 9.4126 15.0329C10.9291 14.5845 12.26 13.6579 13.2068 12.3913C14.1537 11.1248 14.6658 9.58605 14.6667 8.00468V7.38468C14.6667 7.20786 14.5964 7.0383 14.4714 6.91327C14.3464 6.78825 14.1768 6.71801 14 6.71801C13.8232 6.71801 13.6536 6.78825 13.5286 6.91327C13.4036 7.0383 13.3333 7.20786 13.3333 7.38468V7.38401Z" fill="#8BC34A"/>
<path fill-rule="evenodd" clip-rule="evenodd" d="M7.33334 8.39467L5.80467 6.86667C5.74317 6.80299 5.66961 6.7522 5.58827 6.71727C5.50694 6.68233 5.41946 6.66394 5.33094 6.66317C5.24242 6.6624 5.15463 6.67926 5.0727 6.71279C4.99077 6.74631 4.91633 6.79581 4.85374 6.8584C4.79114 6.921 4.74164 6.99543 4.70812 7.07736C4.6746 7.15929 4.65773 7.24708 4.6585 7.3356C4.65927 7.42412 4.67766 7.5116 4.7126 7.59294C4.74754 7.67427 4.79833 7.74783 4.862 7.80933L6.862 9.80933C6.98702 9.93431 7.15656 10.0045 7.33334 10.0045C7.51011 10.0045 7.67965 9.93431 7.80467 9.80933L15.138 2.476C15.2594 2.35026 15.3266 2.18186 15.3251 2.00707C15.3236 1.83227 15.2535 1.66506 15.1299 1.54145C15.0063 1.41785 14.8391 1.34774 14.6643 1.34622C14.4895 1.3447 14.3211 1.41189 14.1953 1.53333L7.33334 8.39467Z" fill="#254E5F"/>
</g>
<defs>
<clipPath id="clip0">
<rect width="16" height="16" fill="white"/>
</clipPath>
</defs>
</svg>
