<svg width="16" height="16" viewBox="0 0 16 16" fill="none" xmlns="http://www.w3.org/2000/svg">
<path d="M8.94266 8L12.4713 11.5287C12.5928 11.6544 12.66 11.8228 12.6584 11.9976C12.6569 12.1724 12.5868 12.3396 12.4632 12.4632C12.3396 12.5868 12.1724 12.6569 11.9976 12.6585C11.8228 12.66 11.6544 12.5928 11.5287 12.4713L7.99999 8.94267L4.47133 12.4713C4.40983 12.535 4.33627 12.5858 4.25493 12.6207C4.17359 12.6557 4.08611 12.6741 3.99759 12.6748C3.90907 12.6756 3.82129 12.6587 3.73936 12.6252C3.65743 12.5917 3.58299 12.5422 3.5204 12.4796C3.4578 12.417 3.4083 12.3426 3.37478 12.2606C3.34126 12.1787 3.32439 12.0909 3.32516 12.0024C3.32593 11.9139 3.34432 11.8264 3.37926 11.7451C3.4142 11.6637 3.46499 11.5902 3.52866 11.5287L7.05733 8L3.52866 4.47133C3.40722 4.3456 3.34002 4.1772 3.34154 4.0024C3.34306 3.8276 3.41318 3.66039 3.53678 3.53679C3.66039 3.41318 3.82759 3.34307 4.00239 3.34155C4.17719 3.34003 4.34559 3.40723 4.47133 3.52867L7.99999 7.05733L11.5287 3.52867C11.6544 3.40723 11.8228 3.34003 11.9976 3.34155C12.1724 3.34307 12.3396 3.41318 12.4632 3.53679C12.5868 3.66039 12.6569 3.8276 12.6584 4.0024C12.66 4.1772 12.5928 4.3456 12.4713 4.47133L8.94266 8Z" fill="#D12E34"/>
</svg>
