<svg width="17" height="16" viewBox="0 0 17 16" fill="none" xmlns="http://www.w3.org/2000/svg">
<path fill-rule="evenodd" clip-rule="evenodd" d="M8.01599 11.1253L5.36199 8.47132C5.23698 8.34623 5.16679 8.1766 5.16685 7.99975C5.16692 7.82291 5.23723 7.65333 5.36232 7.52832C5.48742 7.40332 5.65705 7.33313 5.83389 7.33319C6.01074 7.33325 6.18032 7.40356 6.30532 7.52866L7.83332 9.05732V1.33332C7.83332 1.15651 7.90356 0.986943 8.02859 0.861919C8.15361 0.736894 8.32318 0.666656 8.49999 0.666656C8.6768 0.666656 8.84637 0.736894 8.97139 0.861919C9.09642 0.986943 9.16666 1.15651 9.16666 1.33332V9.05732L10.6947 7.52866C10.8197 7.40356 10.9892 7.33325 11.1661 7.33319C11.3429 7.33313 11.5126 7.40332 11.6377 7.52832C11.7628 7.65333 11.8331 7.82291 11.8331 7.99975C11.8332 8.1766 11.763 8.34623 11.638 8.47132L8.98466 11.124C8.92234 11.19 8.84722 11.2425 8.76388 11.2784C8.68054 11.3144 8.59074 11.3329 8.49999 11.3329C8.40924 11.3329 8.31944 11.3144 8.2361 11.2784C8.15276 11.2425 8.07764 11.19 8.01532 11.124L8.01599 11.1253Z" fill="white"/>
<path fill-rule="evenodd" clip-rule="evenodd" d="M1.83333 11.3333V13.3333C1.83333 13.8638 2.04404 14.3725 2.41911 14.7475C2.79419 15.1226 3.3029 15.3333 3.83333 15.3333H13.1667C13.6971 15.3333 14.2058 15.1226 14.5809 14.7475C14.9559 14.3725 15.1667 13.8638 15.1667 13.3333V11.3333C15.1667 11.1565 15.0964 10.9869 14.9714 10.8619C14.8464 10.7369 14.6768 10.6667 14.5 10.6667C14.3232 10.6667 14.1536 10.7369 14.0286 10.8619C13.9036 10.9869 13.8333 11.1565 13.8333 11.3333V13.3333C13.8333 13.5101 13.7631 13.6797 13.6381 13.8047C13.513 13.9298 13.3435 14 13.1667 14H3.83333C3.65652 14 3.48695 13.9298 3.36192 13.8047C3.2369 13.6797 3.16666 13.5101 3.16666 13.3333V11.3333C3.16666 11.1565 3.09642 10.9869 2.9714 10.8619C2.84638 10.7369 2.67681 10.6667 2.49999 10.6667C2.32318 10.6667 2.15361 10.7369 2.02859 10.8619C1.90357 10.9869 1.83333 11.1565 1.83333 11.3333Z" fill="white"/>
</svg>
