<svg width="16" height="16" viewBox="0 0 16 16" fill="none" xmlns="http://www.w3.org/2000/svg">
<path d="M3.13801 8.19533C3.07652 8.13166 3.00295 8.08087 2.92162 8.04593C2.84028 8.01099 2.7528 7.9926 2.66428 7.99183C2.57576 7.99106 2.48797 8.00793 2.40604 8.04145C2.32411 8.07497 2.24968 8.12447 2.18708 8.18707C2.12449 8.24966 2.07499 8.3241 2.04147 8.40603C2.00795 8.48796 1.99108 8.57575 1.99185 8.66427C1.99262 8.75278 2.01101 8.84026 2.04595 8.9216C2.08089 9.00294 2.13167 9.0765 2.19535 9.138L5.52868 12.4713C5.6537 12.5963 5.82324 12.6665 6.00001 12.6665C6.17679 12.6665 6.34633 12.5963 6.47135 12.4713L13.8047 5.138C13.8684 5.0765 13.9191 5.00294 13.9541 4.9216C13.989 4.84027 14.0074 4.75279 14.0082 4.66427C14.009 4.57575 13.9921 4.48796 13.9586 4.40603C13.925 4.3241 13.8755 4.24966 13.8129 4.18707C13.7503 4.12447 13.6759 4.07497 13.594 4.04145C13.5121 4.00793 13.4243 3.99106 13.3357 3.99183C13.2472 3.9926 13.1597 4.01099 13.0784 4.04593C12.9971 4.08087 12.9235 4.13166 12.862 4.19533L6.00001 11.0573L3.13801 8.19533Z" fill="#254E5F"/>
</svg>
